<?xml version="1.0" encoding="UTF-8"?>
<svg xmlns="http://www.w3.org/2000/svg" viewBox="0 0 792 792">
  <defs>
    <style>
      .cls-1 {
        fill: #ecac42;
      }

      .cls-2 {
        fill: #f5f9fd;
      }

      .cls-3 {
        fill: #0f2446;
      }
    </style>
  </defs>
  <g id="Layer_3" data-name="Layer 3">
    <rect class="cls-3" width="792" height="792"/>
  </g>
  <g id="Layer_5" data-name="Layer 5">
    <path class="cls-2" d="M424.06,368.72l-10.81,.18-52.62-118.46-48.75,120.1-10.81,.18,54.63-132.7,9.46-.15,58.9,130.86Z"/>
    <path class="cls-2" d="M357.38,647.48l191.3-502.61,10.81,.21-191.3,502.61-10.81-.21Z"/>
    <path class="cls-2" d="M245.63,514.79l48.05-122.58,10.81,.27-48.06,122.58-10.81-.27Z"/>
    <path class="cls-1" d="M270.36,371.29l-10.81,.18-52.62-118.46-48.75,120.1-10.81,.18,54.63-132.7,9.46-.15,58.9,130.86Z"/>
    <path class="cls-2" d="M94.25,511.33l48.05-122.58,10.81,.27-48.06,122.58-10.81-.27Z"/>
    <path class="cls-1" d="M549.91,520.52l.69-10.79,122.28-43-115.83-58.17,.69-10.79,127.92,65.04-.6,9.45-135.14,48.28Z"/>
    <path class="cls-2" d="M561.59,367.31l.69-10.79,122.28-43-115.83-58.17,.69-10.79,127.92,65.04-.6,9.45-135.14,48.28Z"/>
  </g>
</svg>